<svg 
          width="26.0000057220459" 
          height="26.0000057220459" fill="none" 
          xmlns="http://www.w3.org/2000/svg">
          <path d="M 13.000005722045898 0 C 10.428848505020142 8.881784197001252e-16 7.91543173789978 0.7624367475509644 5.777592658996582 2.1908950805664062 C 3.639753580093384 3.619353413581848 1.9735111594200134 5.649675607681274 0.9895719289779663 8.025115013122559 C 0.0056326985359191895 10.400554418563843 -0.2518106698989868 13.014421701431274 0.24979722499847412 15.536174774169922 C 0.7514051198959351 18.05792784690857 1.9895349740982056 20.374305844306946 3.807617664337158 22.1923885345459 C 5.625700354576111 24.01047122478485 7.9420788288116455 25.248600006103516 10.463831901550293 25.750207901000977 C 12.98558497428894 26.251815795898438 15.59945034980774 25.99437242746353 17.974889755249023 25.010433197021484 C 20.350329160690308 24.026493966579437 22.38065230846405 22.3602511882782 23.809110641479492 20.222412109375 C 25.237568974494934 18.0845730304718 26.000005722045895 15.571157217025757 26.0000057220459 13 C 25.99339825520292 9.554215431213379 24.621636867523193 6.251452445983887 22.185094833374023 3.814910411834717 C 19.748552799224854 1.3783683776855469 16.44579029083252 0.006607466842979193 13.000005722045898 0 Z M 13.000005722045898 21 C 12.703333735466003 21 12.413324505090714 20.912025943398476 12.166650772094727 20.747203826904297 C 11.91997703909874 20.582381710410118 11.727717734873295 20.348113358020782 11.61418628692627 20.074024200439453 C 11.500654838979244 19.799935042858124 11.470949836075306 19.49833655357361 11.528827667236328 19.207365036010742 C 11.58670549839735 18.916393518447876 11.72956658899784 18.64911936223507 11.939345359802246 18.439340591430664 C 12.149124130606651 18.22956182062626 12.416398286819458 18.086699776351452 12.707369804382324 18.02882194519043 C 12.99834132194519 17.970944114029408 13.299940764904022 18.000650070607662 13.574029922485352 18.114181518554688 C 13.848119080066681 18.227712966501713 14.082387432456017 18.41997131705284 14.247209548950195 18.666645050048828 C 14.412031665444374 18.913318783044815 14.500005722045898 19.203328013420105 14.500005722045898 19.5 C 14.500005722045898 19.897824734449387 14.341969698667526 20.279354840517044 14.060665130615234 20.560659408569336 C 13.779360562562943 20.841963976621628 13.397830456495285 21 13.000005722045898 21 Z M 14.000005722045898 14.887500762939453 L 14.000005722045898 15 C 14.000005722045898 15.265216499567032 13.894649639725685 15.519571170210838 13.707113265991211 15.707107543945312 C 13.519576892256737 15.894643917679787 13.26522222161293 16 13.000005722045898 16 C 12.734789222478867 16 12.480435505509377 15.894643917679787 12.292899131774902 15.707107543945312 C 12.105362758040428 15.519571170210838 12.000005722045898 15.265216499567032 12.000005722045898 15 L 12.000005722045898 14 C 12.000005722045898 13.734783500432968 12.105362758040428 13.480428829789162 12.292899131774902 13.292892456054688 C 12.480435505509377 13.105356082320213 12.734789222478867 13 13.000005722045898 13 C 13.494459003210068 13 13.977808386087418 12.853377848863602 14.388931274414062 12.57867431640625 C 14.800054162740707 12.303970783948898 15.120484739542007 11.913524180650711 15.309703826904297 11.456708908081055 C 15.498922914266586 10.999893635511398 15.54843220114708 10.497226297855377 15.451969146728516 10.012273788452148 C 15.355506092309952 9.52732127904892 15.117403954267502 9.081864327192307 14.767772674560547 8.732233047485352 C 14.418141394853592 8.382601767778397 13.972684442996979 8.144499629735947 13.48773193359375 8.048036575317383 C 13.002779424190521 7.951573520898819 12.5001120865345 8.001081854104996 12.043296813964844 8.190300941467285 C 11.586481541395187 8.379520028829575 11.196034938097 8.699951559305191 10.921331405639648 9.111074447631836 C 10.646627873182297 9.52219733595848 10.5000057220459 10.00554671883583 10.500005722045898 10.5 C 10.500005722045898 10.765216499567032 10.394648686051369 11.019570216536522 10.207112312316895 11.207106590270996 C 10.01957593858242 11.39464296400547 9.76522222161293 11.5 9.500005722045898 11.5 C 9.234789222478867 11.5 8.980435505509377 11.39464296400547 8.792899131774902 11.207106590270996 C 8.605362758040428 11.019570216536522 8.500005722045898 10.765216499567032 8.500005722045898 10.5 C 8.500009074052741 9.652882933616638 8.739123612642288 8.822970449924469 9.189846992492676 8.105714797973633 C 9.640570372343063 7.388459146022797 10.284596264362335 6.8129918575286865 11.0478515625 6.445502281188965 C 11.811106860637665 6.078012704849243 12.662592232227325 5.93342600017786 13.504371643066406 6.028371810913086 C 14.346151053905487 6.123317621648312 15.144034504890442 6.453939497470856 15.806255340576172 6.982211112976074 C 16.468476176261902 7.510482728481293 16.96813577413559 8.214948058128357 17.247766494750977 9.014581680297852 C 17.527397215366364 9.814215302467346 17.57564140856266 10.67654013633728 17.38694953918457 11.502374649047852 C 17.19825766980648 12.328209161758423 16.78029441833496 13.084012389183044 16.18113136291504 13.682853698730469 C 15.581968307495117 14.281695008277893 14.825941503047943 14.699252530932426 14.000005722045898 14.887500762939453 Z" fill="rgb(255,255,255)"/>
        </svg>