<svg 
          width="29.381298065185547" 
          height="30.353126525878906" fill="none" 
          xmlns="http://www.w3.org/2000/svg">
          <path d="M 25.080570220947266 5.281131267547607 L 24.461820602416992 4.662380695343018 L 26.64056968688965 2.486130475997925 C 26.76408277451992 2.362580843269825 26.850618176162243 2.206977590918541 26.890413284301758 2.0368707180023193 C 26.930208392441273 1.8667638450860977 26.92167916893959 1.688921332359314 26.86579132080078 1.5234023332595825 C 26.809903472661972 1.357883334159851 26.70888116955757 1.2112727984786034 26.574113845825195 1.1001073122024536 C 26.43934652209282 0.9889418259263039 26.276196360588074 0.9176440332084894 26.103069305419922 0.8942555785179138 L 19.53557014465332 0.008005752228200436 C 19.39259371161461 -0.010730323381721973 19.2472265958786 0.003523830324411392 19.110612869262695 0.049675654619932175 C 18.97399914264679 0.09582747891545296 18.849770069122314 0.1726512685418129 18.747447967529297 0.2742558419704437 C 18.64561339467764 0.37626588344573975 18.568670630455017 0.5003834813833237 18.522602081298828 0.6369631886482239 C 18.47653353214264 0.7735428959131241 18.46257806569338 0.9189056009054184 18.481821060180664 1.0617552995681763 L 19.365571975708008 7.629256248474121 C 19.388805316761136 7.802335783839226 19.4599200040102 7.965485602617264 19.570899963378906 8.10031795501709 C 19.681879922747612 8.235150307416916 19.82831247150898 8.33630457520485 19.993696212768555 8.392380714416504 C 20.159249678254128 8.448376297950745 20.337158739566803 8.456981517374516 20.507343292236328 8.417223930358887 C 20.677527844905853 8.377466343343258 20.83321202546358 8.29092951118946 20.95682144165039 8.167381286621094 L 23.13619613647461 5.986130237579346 L 23.75494384765625 6.60550594329834 C 25.828045129776 8.681347846984863 27.125437021255493 11.40613341331482 27.43006706237793 14.324021339416504 C 27.734697103500366 17.24190926551819 27.0280898809433 20.175914525985718 25.42845916748047 22.63519287109375 C 23.82882845401764 25.094471216201782 21.433199882507324 26.929855465888977 18.64234733581543 27.83429527282715 C 15.851494789123535 28.73873507976532 12.83469820022583 28.657371759414673 10.09665298461914 27.603816986083984 C 7.358607769012451 26.550262212753296 5.065389513969421 24.58841848373413 3.6006417274475098 22.046493530273438 C 2.135893940925598 19.504568576812744 1.5884610712528229 16.5367431640625 2.0499253273010254 13.639516830444336 C 2.511389583349228 10.742290496826172 3.9537603855133057 8.09139597415924 6.135737895965576 6.130313873291016 C 8.317715406417847 4.1692317724227905 7.570130825042725 4.150781005620956 10.5 4 C 11 2 10.333385646343231 3.6850163638591766 10.5 3.5 C 10.430614471435547 2.9431490898132324 10.013012183830142 3.748640462756157 10 3.5 C 9.986987816169858 3.251359537243843 10.685016363859177 3.166614353656769 10.5 3 C 8 3.5 11.225870966911316 2.911545567214489 9.5 3 C 6.138065338134766 3.1723060607910156 7.375988483428955 2.485142707824707 4.871977806091309 4.735081195831299 C 2.367967128753662 6.985019683837891 0.7126379609107971 10.026685237884521 0.1829833984375 13.351103782653809 C -0.3466711640357971 16.675522327423096 0.28148353099823 20.08100128173828 1.9623357057571411 22.997682571411133 C 3.6431878805160522 25.914363861083984 6.274759292602539 28.16529071331024 9.41669750213623 29.373809814453125 C 12.558635711669922 30.58232891559601 16.020317792892456 30.675118684768677 19.222484588623047 29.636648178100586 C 22.424651384353638 28.598177671432495 25.17302656173706 26.49145269393921 27.00771141052246 23.669002532958984 C 28.84239625930786 20.84655237197876 29.65207874774933 17.47961449623108 29.301273345947266 14.131595611572266 C 28.950467944145203 10.783576726913452 27.460456609725952 7.657603740692139 25.080570220947266 5.276756286621094 L 25.080570220947266 5.281131267547607 Z M 19.27637481689453 1.879568099975586 L 20.970571517944336 5.502379894256592 L 20.503694534301758 2.0298807621002197 C 21.988069534301758 2.593630790710449 20.34387481212616 0.8126931190490723 19.27637481689453 1.879568099975586 Z" fill="rgb(255,255,255)"/>
        </svg>