<svg 
          width="20.000030517578125" 
          height="25.263158798217773" fill="none" 
          xmlns="http://www.w3.org/2000/svg">
          <path d="M 20.000030517578125 1.0526316165924072 L 20.000030517578125 24.210527181625366 C 20.000030517578125 24.48970245431159 19.89467443525791 24.75744422245921 19.707138061523438 24.954850938713207 C 19.519601687788963 25.152257654967205 19.265247017145157 25.263158798217773 19.000030517578125 25.263158798217773 C 18.734814018011093 25.263158798217773 18.480459347367287 25.152257654967205 18.292922973632812 24.954850938713207 C 18.10538659989834 24.75744422245921 18.000030517578125 24.48970245431159 18.000030517578125 24.210527181625366 L 18.000030517578125 14.51315881531491 L 3.0375313758850098 24.131579007286746 C 2.723975121974945 24.32915117349221 2.3654707074165344 24.43372473448343 2.000030994415283 24.434210998604158 C 1.658610612154007 24.439066768611266 1.3221071362495422 24.34824258895283 1.0250310897827148 24.171053094456056 C 0.7128098905086517 23.989146535259362 0.45287537574768066 23.722109764601186 0.2725195288658142 23.397978565369613 C 0.09216368198394775 23.07384736613804 -0.0019601803323894273 22.70457923045972 0.00003094728526775725 22.328947765419343 L 0.00003094728526775725 2.9342105308645614 C -0.00043925865247729234 2.5605336276797317 0.09358564019203186 2.19345847244459 0.27244991064071655 1.8706799222474046 C 0.45131418108940125 1.5479013720502195 0.7085716724395752 1.2810519795793986 1.0178050994873047 1.097534620485476 C 1.3270385265350342 0.9140172613915531 1.677103728055954 0.8204456452376906 2.0320515632629395 0.8264285935266571 C 2.386999398469925 0.8324115418156236 2.734038531780243 0.9377334014056871 3.0375313758850098 1.1315787870632903 L 18.000030517578125 10.749999982902864 L 18.000030517578125 1.0526316165924072 C 18.000030517578125 0.773456343906183 18.10538659989834 0.5057155796263011 18.292922973632812 0.3083088633723037 C 18.480459347367287 0.11090214711830626 18.734814018011093 -9.349246857514324e-16 19.000030517578125 0 C 19.265247017145157 -9.349246857514324e-16 19.519601687788963 0.11090214711830626 19.707138061523438 0.3083088633723037 C 19.89467443525791 0.5057155796263011 20.000030517578125 0.773456343906183 20.000030517578125 1.0526316165924072 Z" fill="rgb(255,255,255)"/>
        </svg>